<svg xmlns="http://www.w3.org/2000/svg" viewBox="0 0 87 50"><g fill="#4C4C4C" fill-rule="evenodd"><path d="M40.908.285h14L47.634 30.29c-1.4 5.79-5.766 7.183-9.803 7.183H5.57c-3.555 0-6.531-1.49-4.92-8.178l2.908-11.969c1.47-6.07 6.048-7.455 9.358-7.455h22.52l-1.817 7.48H22.122c-1.69 0-2.616.358-3.087 2.303l-1.858 7.645c-.661 2.738.31 2.927 2.346 2.927h10.534c1.928 0 3.626-.12 4.46-3.563L40.908.285zM72.476 9.861l-6.588 27.608h13.601l6.585-27.608H72.476"/><path d="M55.806 9.862l-5.544 22.779c-1.252 5.17-4.863 6.913-8.494 7.212-.36.045-10.505-.006-10.505-.006l-2.282 9.357h19.076c4.995 0 12.373-2.52 15.011-13.391l6.337-25.95h-13.6"/></g></svg>