<?xml version="1.0" encoding="UTF-8"?>
<svg width="96px" height="68px" viewBox="0 0 96 68" version="1.1" xmlns="http://www.w3.org/2000/svg" xmlns:xlink="http://www.w3.org/1999/xlink">
    <!-- Generator: Sketch 50.2 (55047) - http://www.bohemiancoding.com/sketch -->
    <title>Group</title>
    <desc>Created with Sketch.</desc>
    <defs>
        <rect id="path-1" x="0" y="0" width="96" height="96"></rect>
        <polygon id="path-3" points="0 1.3983 7.3257 1.3983 7.3257 30.0648 0 30.0648"></polygon>
        <polygon id="path-5" points="0.1743 1.3983 7.5 1.3983 7.5 30.0648 0.1743 30.0648"></polygon>
    </defs>
    <g id="Page-1" stroke="none" stroke-width="1" fill="none" fill-rule="evenodd">
        <g id="哈苏相机" transform="translate(0.000000, -14.000000)">
            <g id="Group">
                <mask id="mask-2" fill="white">
                    <use xlink:href="#path-1"></use>
                </mask>
                <g id="Mask"></g>
                <g mask="url(#mask-2)">
                    <g transform="translate(0.000000, 14.000000)">
                        <path d="M75.9726,0.00015 L20.0271,0.00015 C12.2271,0.00015 5.9031,6.32415 5.9031,14.12565 L5.9031,53.41065 C5.9031,61.21365 12.2271,67.53615 20.0271,67.53615 L75.9726,67.53615 C83.7726,67.53615 90.0981,61.21365 90.0981,53.41065 L90.0981,14.12565 C90.0981,6.32415 83.7726,0.00015 75.9726,0.00015 M75.9726,1.50015 C82.9341,1.50015 88.5981,7.16265 88.5981,14.12565 L88.5981,53.41065 C88.5981,60.37365 82.9341,66.03615 75.9726,66.03615 L20.0271,66.03615 C13.0656,66.03615 7.4031,60.37365 7.4031,53.41065 L7.4031,14.12565 C7.4031,7.16265 13.0656,1.50015 20.0271,1.50015 L75.9726,1.50015" id="Fill-1" fill="#707473"></path>
                        <path d="M75.063,6.7062 L20.937,6.7062 C15.9555,6.7062 11.916,10.7442 11.916,15.7272 L11.916,51.8097 C11.916,56.7927 15.9555,60.8307 20.937,60.8307 L75.063,60.8307 C80.0445,60.8307 84.084,56.7927 84.084,51.8097 L84.084,15.7272 C84.084,10.7442 80.0445,6.7062 75.063,6.7062 M75.063,8.2062 C79.2105,8.2062 82.584,11.5797 82.584,15.7272 L82.584,51.8097 C82.584,55.9572 79.2105,59.3307 75.063,59.3307 L20.937,59.3307 C16.7895,59.3307 13.416,55.9572 13.416,51.8097 L13.416,15.7272 C13.416,11.5797 16.7895,8.2062 20.937,8.2062 L75.063,8.2062" id="Fill-3" fill="#707473"></path>
                        <polygon id="Fill-5" fill="#707473" points="56.25 23.27655 53.097 33.23205 53.1255 33.23205 45.39 33.23205 45.387 33.23205 48.5385 23.27655 43.56 23.27655 40.4085 33.23205 35.337 33.23205 34.776 35.08455 39.828 35.08455 36.921 44.26005 41.901 44.26005 44.805 35.08455 44.8065 35.08455 52.5135 35.08455 49.6125 44.26005 54.591 44.26005 61.2255 23.27655"></polygon>
                        <g id="Group-9" stroke-width="1" fill="none" transform="translate(0.000000, 18.036750)">
                            <mask id="mask-4" fill="white">
                                <use xlink:href="#path-3"></use>
                            </mask>
                            <g id="Clip-8"></g>
                            <path d="M5.8257,3.0513 C3.3447,3.5238 1.4997,5.3823 1.4997,7.5408 L1.4997,23.9208 C1.4997,26.0808 3.3447,27.9393 5.8257,28.4118 L5.8257,3.0513 Z M7.3257,30.0648 L6.5262,30.0123 C2.8662,29.7693 -0.0003,27.0933 -0.0003,23.9208 L-0.0003,7.5408 C-0.0003,4.3683 2.8662,1.6938 6.5262,1.4523 L7.3257,1.3983 L7.3257,30.0648 Z" id="Fill-7" fill="#707473" mask="url(#mask-4)"></path>
                        </g>
                        <g id="Group-12" stroke-width="1" fill="none" transform="translate(88.500000, 18.036750)">
                            <mask id="mask-6" fill="white">
                                <use xlink:href="#path-5"></use>
                            </mask>
                            <g id="Clip-11"></g>
                            <path d="M1.6743,3.0513 L1.6743,28.4118 C4.1553,27.9393 6.0003,26.0808 6.0003,23.9208 L6.0003,7.5408 C6.0003,5.3823 4.1553,3.5238 1.6743,3.0513 Z M0.1743,30.0648 L0.1743,1.3983 L0.9738,1.4523 C4.6338,1.6938 7.5003,4.3683 7.5003,7.5408 L7.5003,23.9208 C7.5003,27.0933 4.6338,29.7693 0.9738,30.0123 L0.1743,30.0648 Z" id="Fill-10" fill="#707473" mask="url(#mask-6)"></path>
                        </g>
                    </g>
                </g>
            </g>
        </g>
    </g>
</svg>