<?xml version="1.0" encoding="UTF-8"?>
<svg width="96px" height="96px" viewBox="0 0 96 96" version="1.1" xmlns="http://www.w3.org/2000/svg" xmlns:xlink="http://www.w3.org/1999/xlink">
    <!-- Generator: Sketch 50.2 (55047) - http://www.bohemiancoding.com/sketch -->
    <title> CMOS</title>
    <desc>Created with Sketch.</desc>
    <defs>
        <rect id="path-1" x="0" y="0" width="96" height="96"></rect>
        <polygon id="path-3" points="1.45875 0.8355 85.45875 0.8355 85.45875 59.9994 1.45875 59.9994"></polygon>
        <polygon id="path-5" points="-0.00045 0.084 7.4175 0.084 7.4175 1.584 -0.00045 1.584"></polygon>
        <polygon id="path-7" points="-0.00045 1.3965 7.4175 1.3965 7.4175 2.8965 -0.00045 2.8965"></polygon>
        <polygon id="path-9" points="-0.00045 1.209 7.4175 1.209 7.4175 2.709 -0.00045 2.709"></polygon>
        <polygon id="path-11" points="-0.00045 1.0215 7.4175 1.0215 7.4175 2.5215 -0.00045 2.5215"></polygon>
        <polygon id="path-13" points="-0.00045 0.834 7.4175 0.834 7.4175 2.334 -0.00045 2.334"></polygon>
        <polygon id="path-15" points="0 0.084 7.41855 0.084 7.41855 1.584 0 1.584"></polygon>
        <polygon id="path-17" points="0 1.3965 7.41855 1.3965 7.41855 2.8965 0 2.8965"></polygon>
        <polygon id="path-19" points="0 1.209 7.41855 1.209 7.41855 2.709 0 2.709"></polygon>
        <polygon id="path-21" points="0 1.0215 7.41855 1.0215 7.41855 2.5215 0 2.5215"></polygon>
        <polygon id="path-23" points="0 0.834 7.41855 0.834 7.41855 2.334 0 2.334"></polygon>
    </defs>
    <g id="-CMOS" stroke="none" stroke-width="1" fill="none" fill-rule="evenodd">
        <g id="Group">
            <mask id="mask-2" fill="white">
                <use xlink:href="#path-1"></use>
            </mask>
            <g id="Mask"></g>
            <g mask="url(#mask-2)">
                <g transform="translate(0.000000, 19.500000)">
                    <g id="Group-3" stroke-width="1" fill="none" transform="translate(4.500000, -0.834900)">
                        <mask id="mask-4" fill="white">
                            <use xlink:href="#path-3"></use>
                        </mask>
                        <g id="Clip-2"></g>
                        <path d="M5.52825,2.3349 C4.11225,2.3349 2.95875,3.4869 2.95875,4.9029 L2.95875,55.9299 C2.95875,57.3474 4.11225,58.4994 5.52825,58.4994 L81.39075,58.4994 C82.80825,58.4994 83.95875,57.3474 83.95875,55.9299 L83.95875,4.9029 C83.95875,3.4869 82.80825,2.3349 81.39075,2.3349 L5.52825,2.3349 Z M81.39075,59.9994 L5.52825,59.9994 C3.28425,59.9994 1.45875,58.1754 1.45875,55.9299 L1.45875,4.9029 C1.45875,2.6604 3.28425,0.8349 5.52825,0.8349 L81.39075,0.8349 C83.63325,0.8349 85.45875,2.6604 85.45875,4.9029 L85.45875,55.9299 C85.45875,58.1754 83.63325,59.9994 81.39075,59.9994 Z" id="Fill-1" fill="#707473" mask="url(#mask-4)"></path>
                    </g>
                    <path d="M16.59225,7.5513 C16.59225,8.7933 15.58425,9.8013 14.34225,9.8013 C13.09875,9.8013 12.09225,8.7933 12.09225,7.5513 C12.09225,6.3078 13.09875,5.3013 14.34225,5.3013 C15.58425,5.3013 16.59225,6.3078 16.59225,7.5513" id="Fill-4" fill="#707473"></path>
                    <path d="M83.8257,7.5513 C83.8257,8.7933 82.8192,9.8013 81.5757,9.8013 C80.3337,9.8013 79.3257,8.7933 79.3257,7.5513 C79.3257,6.3078 80.3337,5.3013 81.5757,5.3013 C82.8192,5.3013 83.8257,6.3078 83.8257,7.5513" id="Fill-6" fill="#707473"></path>
                    <path d="M16.59225,51.6138 C16.59225,52.8558 15.58425,53.8638 14.34225,53.8638 C13.09875,53.8638 12.09225,52.8558 12.09225,51.6138 C12.09225,50.3703 13.09875,49.3638 14.34225,49.3638 C15.58425,49.3638 16.59225,50.3703 16.59225,51.6138" id="Fill-8" fill="#707473"></path>
                    <path d="M83.8257,51.6138 C83.8257,52.8558 82.8192,53.8638 81.5757,53.8638 C80.3337,53.8638 79.3257,52.8558 79.3257,51.6138 C79.3257,50.3703 80.3337,49.3638 81.5757,49.3638 C82.8192,49.3638 83.8257,50.3703 83.8257,51.6138" id="Fill-10" fill="#707473"></path>
                    <path d="M24.9345,33.876 C23.766,32.7285 23.181,31.299 23.181,29.586 C23.181,27.867 23.766,26.4375 24.9345,25.2945 C26.0895,24.1635 27.5115,23.5965 29.202,23.5965 C31.296,23.5965 32.8545,24.396 33.8805,25.9905 L32.0415,27.2925 C31.413,26.274 30.4665,25.7655 29.202,25.7655 C28.155,25.7655 27.2985,26.1285 26.6325,26.8545 C25.9815,27.573 25.6575,28.4835 25.6575,29.586 C25.6575,30.6885 25.9815,31.6035 26.6325,32.331 C27.2985,33.066 28.155,33.432 29.202,33.432 C29.9055,33.432 30.5145,33.273 31.0245,32.955 C31.455,32.679 31.8495,32.268 32.2095,31.719 L34.0815,33.003 C33.561,33.828 32.9025,34.4535 32.1075,34.884 C31.263,35.349 30.294,35.583 29.202,35.583 C27.5115,35.583 26.0895,35.0145 24.9345,33.876" id="Fill-12" fill="#707473"></path>
                    <path d="M37.35645,23.6163 L37.54845,23.6163 L43.30995,29.9463 L48.97845,23.6163 L49.18845,23.6163 L49.18845,35.4303 L46.87095,35.4303 L46.87095,31.0473 C46.87095,30.7173 46.88445,30.2763 46.91145,29.7288 L46.95345,28.9983 L46.53345,29.5938 C46.20345,30.0423 45.92445,30.3963 45.69495,30.6513 L43.37745,33.2478 L43.14945,33.2478 L40.83045,30.6513 C40.60245,30.3963 40.32345,30.0423 39.99195,29.5938 L39.57345,28.9983 L39.61395,29.7288 C39.64095,30.2763 39.65595,30.7173 39.65595,31.0473 L39.65595,35.4303 L37.35645,35.4303 L37.35645,23.6163 Z" id="Fill-14" fill="#707473"></path>
                    <path d="M59.86815,32.3307 C60.52965,31.6047 60.86115,30.6882 60.86115,29.5857 C60.86115,28.4772 60.52965,27.5607 59.86815,26.8407 C59.19765,26.1027 58.33665,25.7322 57.28215,25.7322 C56.23065,25.7322 55.36815,26.1027 54.69615,26.8407 C54.03615,27.5607 53.70615,28.4772 53.70615,29.5857 C53.70615,30.6882 54.03615,31.6047 54.69615,32.3307 C55.36815,33.0657 56.23065,33.4317 57.28215,33.4317 C58.33665,33.4317 59.19765,33.0657 59.86815,32.3307 M52.99215,33.8757 C51.81615,32.7297 51.22815,31.3002 51.22815,29.5857 C51.22815,27.8667 51.81615,26.4342 52.99215,25.2867 C54.15015,24.1497 55.58265,23.5827 57.28215,23.5827 C58.98015,23.5827 60.40815,24.1497 61.57515,25.2867 C62.74965,26.4342 63.33765,27.8667 63.33765,29.5857 C63.33765,31.3002 62.74965,32.7297 61.57515,33.8757 C60.40815,35.0142 58.98015,35.5827 57.28215,35.5827 C55.58265,35.5827 54.15015,35.0142 52.99215,33.8757" id="Fill-16" fill="#707473"></path>
                    <path d="M65.9853,34.8765 C65.2803,34.4505 64.7403,33.8685 64.3638,33.1305 L66.3228,31.9875 C66.6123,32.4585 66.9258,32.808 67.2633,33.036 C67.6653,33.312 68.1423,33.4485 68.6973,33.4485 C69.7893,33.4485 70.3338,33.054 70.3338,32.265 C70.3338,31.89 70.1793,31.5825 69.8643,31.3425 C69.7293,31.2345 69.5478,31.122 69.3198,31.0065 C69.2178,30.954 69.1008,30.9 68.9658,30.8385 L67.9743,30.408 C67.0173,30 66.3183,29.5455 65.8758,29.0475 C65.3493,28.455 65.0853,27.699 65.0853,26.781 C65.0853,25.863 65.4048,25.107 66.0438,24.513 C66.6993,23.904 67.5558,23.5965 68.6133,23.5965 C70.1643,23.5965 71.3043,24.2385 72.0318,25.521 L70.1583,26.73 C69.7773,26.0415 69.2628,25.698 68.6133,25.698 C67.8468,25.698 67.4628,26.0415 67.4628,26.73 C67.4628,27.2745 67.9548,27.762 68.9418,28.1925 L69.5373,28.4535 C70.6518,28.9275 71.4423,29.4135 71.9058,29.9115 C72.4593,30.513 72.7383,31.284 72.7383,32.2305 C72.7383,33.2895 72.3588,34.1205 71.6028,34.725 C70.8813,35.2965 69.9303,35.583 68.7483,35.583 C67.6833,35.583 66.7638,35.346 65.9853,34.8765" id="Fill-18" fill="#707473"></path>
                    <g id="Group-22" stroke-width="1" fill="none" transform="translate(88.500000, 8.165100)">
                        <mask id="mask-6" fill="white">
                            <use xlink:href="#path-5"></use>
                        </mask>
                        <g id="Clip-21"></g>
                        <path d="M6.70905,1.5015 L0.70905,1.5015 C0.31755,1.5015 -0.00045,1.1835 -0.00045,0.792 C-0.00045,0.402 0.31755,0.084 0.70905,0.084 L6.70905,0.084 C7.10055,0.084 7.41855,0.402 7.41855,0.792 C7.41855,1.1835 7.10055,1.5015 6.70905,1.5015" id="Fill-20" fill="#707473" mask="url(#mask-6)"></path>
                    </g>
                    <g id="Group-25" stroke-width="1" fill="none" transform="translate(88.500000, 17.165100)">
                        <mask id="mask-8" fill="white">
                            <use xlink:href="#path-7"></use>
                        </mask>
                        <g id="Clip-24"></g>
                        <path d="M6.70905,2.814 L0.70905,2.814 C0.31755,2.814 -0.00045,2.496 -0.00045,2.1045 C-0.00045,1.7145 0.31755,1.3965 0.70905,1.3965 L6.70905,1.3965 C7.10055,1.3965 7.41855,1.7145 7.41855,2.1045 C7.41855,2.496 7.10055,2.814 6.70905,2.814" id="Fill-23" fill="#707473" mask="url(#mask-8)"></path>
                    </g>
                    <g id="Group-28" stroke-width="1" fill="none" transform="translate(88.500000, 27.665100)">
                        <mask id="mask-10" fill="white">
                            <use xlink:href="#path-9"></use>
                        </mask>
                        <g id="Clip-27"></g>
                        <path d="M6.70905,2.6265 L0.70905,2.6265 C0.31755,2.6265 -0.00045,2.3085 -0.00045,1.917 C-0.00045,1.527 0.31755,1.209 0.70905,1.209 L6.70905,1.209 C7.10055,1.209 7.41855,1.527 7.41855,1.917 C7.41855,2.3085 7.10055,2.6265 6.70905,2.6265" id="Fill-26" fill="#707473" mask="url(#mask-10)"></path>
                    </g>
                    <g id="Group-31" stroke-width="1" fill="none" transform="translate(88.500000, 38.165100)">
                        <mask id="mask-12" fill="white">
                            <use xlink:href="#path-11"></use>
                        </mask>
                        <g id="Clip-30"></g>
                        <path d="M6.70905,2.439 L0.70905,2.439 C0.31755,2.439 -0.00045,2.121 -0.00045,1.7295 C-0.00045,1.3395 0.31755,1.0215 0.70905,1.0215 L6.70905,1.0215 C7.10055,1.0215 7.41855,1.3395 7.41855,1.7295 C7.41855,2.121 7.10055,2.439 6.70905,2.439" id="Fill-29" fill="#707473" mask="url(#mask-12)"></path>
                    </g>
                    <g id="Group-34" stroke-width="1" fill="none" transform="translate(88.500000, 48.665100)">
                        <mask id="mask-14" fill="white">
                            <use xlink:href="#path-13"></use>
                        </mask>
                        <g id="Clip-33"></g>
                        <path d="M6.70905,2.2515 L0.70905,2.2515 C0.31755,2.2515 -0.00045,1.9335 -0.00045,1.542 C-0.00045,1.152 0.31755,0.834 0.70905,0.834 L6.70905,0.834 C7.10055,0.834 7.41855,1.152 7.41855,1.542 C7.41855,1.9335 7.10055,2.2515 6.70905,2.2515" id="Fill-32" fill="#707473" mask="url(#mask-14)"></path>
                    </g>
                    <g id="Group-37" stroke-width="1" fill="none" transform="translate(0.000000, 8.165100)">
                        <mask id="mask-16" fill="white">
                            <use xlink:href="#path-15"></use>
                        </mask>
                        <g id="Clip-36"></g>
                        <path d="M6.70905,1.5015 L0.70905,1.5015 C0.31755,1.5015 -0.00045,1.1835 -0.00045,0.792 C-0.00045,0.402 0.31755,0.084 0.70905,0.084 L6.70905,0.084 C7.10055,0.084 7.41855,0.402 7.41855,0.792 C7.41855,1.1835 7.10055,1.5015 6.70905,1.5015" id="Fill-35" fill="#707473" mask="url(#mask-16)"></path>
                    </g>
                    <g id="Group-40" stroke-width="1" fill="none" transform="translate(0.000000, 17.165100)">
                        <mask id="mask-18" fill="white">
                            <use xlink:href="#path-17"></use>
                        </mask>
                        <g id="Clip-39"></g>
                        <path d="M6.70905,2.814 L0.70905,2.814 C0.31755,2.814 -0.00045,2.496 -0.00045,2.1045 C-0.00045,1.7145 0.31755,1.3965 0.70905,1.3965 L6.70905,1.3965 C7.10055,1.3965 7.41855,1.7145 7.41855,2.1045 C7.41855,2.496 7.10055,2.814 6.70905,2.814" id="Fill-38" fill="#707473" mask="url(#mask-18)"></path>
                    </g>
                    <g id="Group-43" stroke-width="1" fill="none" transform="translate(0.000000, 27.665100)">
                        <mask id="mask-20" fill="white">
                            <use xlink:href="#path-19"></use>
                        </mask>
                        <g id="Clip-42"></g>
                        <path d="M6.70905,2.6265 L0.70905,2.6265 C0.31755,2.6265 -0.00045,2.3085 -0.00045,1.917 C-0.00045,1.527 0.31755,1.209 0.70905,1.209 L6.70905,1.209 C7.10055,1.209 7.41855,1.527 7.41855,1.917 C7.41855,2.3085 7.10055,2.6265 6.70905,2.6265" id="Fill-41" fill="#707473" mask="url(#mask-20)"></path>
                    </g>
                    <g id="Group-46" stroke-width="1" fill="none" transform="translate(0.000000, 38.165100)">
                        <mask id="mask-22" fill="white">
                            <use xlink:href="#path-21"></use>
                        </mask>
                        <g id="Clip-45"></g>
                        <path d="M6.70905,2.439 L0.70905,2.439 C0.31755,2.439 -0.00045,2.121 -0.00045,1.7295 C-0.00045,1.3395 0.31755,1.0215 0.70905,1.0215 L6.70905,1.0215 C7.10055,1.0215 7.41855,1.3395 7.41855,1.7295 C7.41855,2.121 7.10055,2.439 6.70905,2.439" id="Fill-44" fill="#707473" mask="url(#mask-22)"></path>
                    </g>
                    <g id="Group-49" stroke-width="1" fill="none" transform="translate(0.000000, 48.665100)">
                        <mask id="mask-24" fill="white">
                            <use xlink:href="#path-23"></use>
                        </mask>
                        <g id="Clip-48"></g>
                        <path d="M6.70905,2.2515 L0.70905,2.2515 C0.31755,2.2515 -0.00045,1.9335 -0.00045,1.542 C-0.00045,1.152 0.31755,0.834 0.70905,0.834 L6.70905,0.834 C7.10055,0.834 7.41855,1.152 7.41855,1.542 C7.41855,1.9335 7.10055,2.2515 6.70905,2.2515" id="Fill-47" fill="#707473" mask="url(#mask-24)"></path>
                    </g>
                </g>
            </g>
        </g>
    </g>
</svg>