<?xml version="1.0" encoding="UTF-8"?>
<svg width="96px" height="96px" viewBox="0 0 96 96" version="1.1" xmlns="http://www.w3.org/2000/svg" xmlns:xlink="http://www.w3.org/1999/xlink">
    <!-- Generator: Sketch 50.2 (55047) - http://www.bohemiancoding.com/sketch -->
    <title>光圈</title>
    <desc>Created with Sketch.</desc>
    <defs>
        <rect id="path-1" x="0" y="0" width="96" height="96"></rect>
        <polygon id="path-3" points="0 1.1565 13.569 1.1565 13.569 14.7231 0 14.7231"></polygon>
        <polygon id="path-5" points="0 1.4325 13.56885 1.4325 13.56885 15 0 15"></polygon>
        <polygon id="path-7" points="1.4325 1.1565 15 1.1565 15 14.7231 1.4325 14.7231"></polygon>
    </defs>
    <g id="光圈" stroke="none" stroke-width="1" fill="none" fill-rule="evenodd">
        <g id="Group">
            <mask id="mask-2" fill="white">
                <use xlink:href="#path-1"></use>
            </mask>
            <g id="Mask"></g>
            <g mask="url(#mask-2)">
                <g transform="translate(0.000000, 15.000000)">
                    <g id="Group-3" stroke-width="1" fill="none" transform="translate(0.000000, -1.155750)">
                        <mask id="mask-4" fill="white">
                            <use xlink:href="#path-3"></use>
                        </mask>
                        <g id="Clip-2"></g>
                        <path d="M0.75,14.7231 C0.336,14.7231 0,14.3871 0,13.9731 L0,4.8366 C0,2.8071 1.653,1.1556 3.6825,1.1556 L12.819,1.1556 C13.233,1.1556 13.569,1.4916 13.569,1.9056 C13.569,2.3196 13.233,2.6556 12.819,2.6556 L3.6825,2.6556 C2.478,2.6556 1.5,3.6336 1.5,4.8366 L1.5,13.9731 C1.5,14.3871 1.164,14.7231 0.75,14.7231" id="Fill-1" fill="#707473" mask="url(#mask-4)"></path>
                    </g>
                    <g id="Group-6" stroke-width="1" fill="none" transform="translate(0.000000, 51.344250)">
                        <mask id="mask-6" fill="white">
                            <use xlink:href="#path-5"></use>
                        </mask>
                        <g id="Clip-5"></g>
                        <path d="M12.81885,15 L3.68235,15 C1.65285,15 -0.00015,13.3485 -0.00015,11.319 L-0.00015,2.1825 C-0.00015,1.7685 0.33585,1.4325 0.74985,1.4325 C1.16385,1.4325 1.49985,1.7685 1.49985,2.1825 L1.49985,11.319 C1.49985,12.522 2.47785,13.5 3.68235,13.5 L12.81885,13.5 C13.23285,13.5 13.56885,13.836 13.56885,14.25 C13.56885,14.664 13.23285,15 12.81885,15" id="Fill-4" fill="#707473" mask="url(#mask-6)"></path>
                    </g>
                    <path d="M92.31885,66.34425 L83.18235,66.34425 C82.76835,66.34425 82.43235,66.00825 82.43235,65.59425 C82.43235,65.18025 82.76835,64.84425 83.18235,64.84425 L92.31885,64.84425 C93.52185,64.84425 94.49985,63.86625 94.49985,62.66325 L94.49985,53.52675 C94.49985,53.11275 94.83585,52.77675 95.24985,52.77675 C95.66385,52.77675 95.99985,53.11275 95.99985,53.52675 L95.99985,62.66325 C95.99985,64.69275 94.34985,66.34425 92.31885,66.34425" id="Fill-7" fill="#707473"></path>
                    <g id="Group-11" stroke-width="1" fill="none" transform="translate(81.000000, -1.155750)">
                        <mask id="mask-8" fill="white">
                            <use xlink:href="#path-7"></use>
                        </mask>
                        <g id="Clip-10"></g>
                        <path d="M14.25,14.7231 C13.836,14.7231 13.5,14.3871 13.5,13.9731 L13.5,4.8366 C13.5,3.6336 12.522,2.6556 11.319,2.6556 L2.1825,2.6556 C1.7685,2.6556 1.4325,2.3196 1.4325,1.9056 C1.4325,1.4916 1.7685,1.1556 2.1825,1.1556 L11.319,1.1556 C13.3485,1.1556 15,2.8071 15,4.8366 L15,13.9731 C15,14.3871 14.664,14.7231 14.25,14.7231" id="Fill-9" fill="#707473" mask="url(#mask-8)"></path>
                    </g>
                    <path d="M42.80865,42.1656 L53.19165,42.1656 L58.38465,33.1731 L53.19165,24.1791 L42.80865,24.1791 L37.61565,33.1731 L42.80865,42.1656 Z M53.62515,43.6656 L42.37515,43.6656 C42.10665,43.6656 41.85915,43.5216 41.72565,43.2906 L36.10065,33.5481 C35.96565,33.3171 35.96565,33.0291 36.10065,32.7981 L41.72565,23.0541 C41.85915,22.8216 42.10665,22.6791 42.37515,22.6791 L53.62515,22.6791 C53.89365,22.6791 54.14115,22.8216 54.27465,23.0541 L59.89965,32.7981 C60.03315,33.0291 60.03315,33.3171 59.89965,33.5481 L54.27465,43.2906 C54.14115,43.5216 53.89365,43.6656 53.62515,43.6656 Z" id="Fill-12" fill="#707473"></path>
                    <path d="M48,3.9228 C31.872,3.9228 18.75,17.0448 18.75,33.1728 C18.75,49.3008 31.872,62.4228 48,62.4228 C64.128,62.4228 77.25,49.3008 77.25,33.1728 C77.25,17.0448 64.128,3.9228 48,3.9228 M48,63.9228 C31.044,63.9228 17.25,50.1288 17.25,33.1728 C17.25,16.2168 31.044,2.4228 48,2.4228 C64.956,2.4228 78.75,16.2168 78.75,33.1728 C78.75,50.1288 64.956,63.9228 48,63.9228" id="Fill-14" fill="#707473"></path>
                    <path d="M76.1469,24.17865 L44.1114,24.17865 C43.6959,24.17865 43.3614,23.84265 43.3614,23.42865 C43.3614,23.01465 43.6959,22.67865 44.1114,22.67865 L76.1469,22.67865 C76.5609,22.67865 76.8969,23.01465 76.8969,23.42865 C76.8969,23.84265 76.5609,24.17865 76.1469,24.17865" id="Fill-16" fill="#707473"></path>
                    <path d="M36.75,33.9228 C36.621,33.9228 36.492,33.8913 36.3735,33.8223 C36.0165,33.6138 35.8935,33.1548 36.1005,32.7963 L53.148,3.3543 C53.355,2.9958 53.8155,2.8743 54.1725,3.0813 C54.531,3.2898 54.654,3.7488 54.4455,4.1073 L37.3995,33.5493 C37.26,33.7878 37.008,33.9228 36.75,33.9228" id="Fill-18" fill="#707473"></path>
                    <path d="M42.378,63.39405 C42.2505,63.39405 42.123,63.36255 42.006,63.29505 C41.646,63.08955 41.5215,62.63055 41.727,62.27205 L58.599,32.80005 C58.8045,32.43705 59.2665,32.31555 59.622,32.52255 C59.982,32.72805 60.1065,33.18555 59.901,33.54555 L43.029,63.01605 C42.891,63.25905 42.6375,63.39405 42.378,63.39405" id="Fill-20" fill="#707473"></path>
                    <path d="M41.4258,42.01905 C41.1678,42.01905 40.9173,41.88555 40.7778,41.64705 L24.6468,13.94205 C24.4383,13.58355 24.5598,13.12455 24.9168,12.91755 C25.2708,12.70455 25.7328,12.82755 25.9428,13.18605 L42.0738,40.89105 C42.2823,41.24955 42.1608,41.70855 41.8038,41.91705 C41.6853,41.98755 41.5548,42.01905 41.4258,42.01905" id="Fill-22" fill="#707473"></path>
                    <path d="M70.7109,53.5239 C70.4529,53.5239 70.2024,53.3904 70.0629,53.1519 L52.9764,23.8059 C52.7664,23.4474 52.8879,22.9899 53.2449,22.7814 C53.6004,22.5699 54.0609,22.6914 54.2709,23.0514 L71.3589,52.3959 C71.5674,52.7544 71.4459,53.2134 71.0889,53.4219 C70.9704,53.4924 70.8399,53.5239 70.7109,53.5239" id="Fill-24" fill="#707473"></path>
                    <path d="M53.625,43.6656 L19.6185,43.6656 C19.2045,43.6656 18.8685,43.3296 18.8685,42.9156 C18.8685,42.5016 19.2045,42.1656 19.6185,42.1656 L53.625,42.1656 C54.039,42.1656 54.375,42.5016 54.375,42.9156 C54.375,43.3296 54.039,43.6656 53.625,43.6656" id="Fill-26" fill="#707473"></path>
                    <path d="M41.4258,42.01905 C41.1678,42.01905 40.9173,41.88555 40.7778,41.64705 L24.6468,13.94205 C24.4383,13.58355 24.5598,13.12455 24.9168,12.91755 C25.2708,12.70455 25.7328,12.82755 25.9428,13.18605 L42.0738,40.89105 C42.2823,41.24955 42.1608,41.70855 41.8038,41.91705 C41.6853,41.98755 41.5548,42.01905 41.4258,42.01905" id="Fill-28" fill="#707473"></path>
                </g>
            </g>
        </g>
    </g>
</svg>